<?xml version="1.0" encoding="UTF-8" standalone="no"?>
<svg
   xmlns:dc="http://purl.org/dc/elements/1.1/"
   xmlns:cc="http://creativecommons.org/ns#"
   xmlns:rdf="http://www.w3.org/1999/02/22-rdf-syntax-ns#"
   xmlns:svg="http://www.w3.org/2000/svg"
   xmlns="http://www.w3.org/2000/svg"
   xmlns:sodipodi="http://sodipodi.sourceforge.net/DTD/sodipodi-0.dtd"
   xmlns:inkscape="http://www.inkscape.org/namespaces/inkscape"
   sodipodi:docname="Sandwich61.svg"
   inkscape:version="1.0 (4035a4fb49, 2020-05-01)"
   width="800mm"
   height="600mm"
   viewBox="0 0 800 600"
   version="1.1"
   id="SVGRoot">
  <defs
     id="defs127" />
  <sodipodi:namedview
     inkscape:window-maximized="1"
     inkscape:window-y="-8"
     inkscape:window-x="-8"
     inkscape:window-height="1017"
     inkscape:window-width="1920"
     showgrid="true"
     inkscape:document-rotation="0"
     inkscape:current-layer="layer1"
     inkscape:document-units="mm"
     inkscape:cy="407.77974"
     inkscape:cx="1878.4829"
     inkscape:zoom="0.35"
     inkscape:pageshadow="2"
     inkscape:pageopacity="0.0"
     borderopacity="1.0"
     bordercolor="#666666"
     pagecolor="#ffffff"
     id="base">
    <inkscape:grid
       id="grid1014"
       type="xygrid" />
  </sodipodi:namedview>
  <metadata
     id="metadata130">
    <rdf:RDF>
      <cc:Work
         rdf:about="">
        <dc:format>image/svg+xml</dc:format>
        <dc:type
           rdf:resource="http://purl.org/dc/dcmitype/StillImage" />
        <dc:title></dc:title>
      </cc:Work>
    </rdf:RDF>
  </metadata>
  <g
     id="layer1"
     inkscape:groupmode="layer"
     inkscape:label="Layer 1">
    <polygon
       transform="translate(5.4303333,9.64)"
       points="306.05,5.48 306.166,5.586 306.272,5.702 306.37,5.825 306.457,5.956 306.534,6.093 306.599,6.235 306.654,6.382 306.696,6.534 306.727,6.688 306.745,6.844 306.752,7.001 306.752,114.251 306.745,114.408 306.727,114.564 306.696,114.718 306.654,114.87 306.599,115.017 306.534,115.159 306.457,115.296 306.37,115.427 306.272,115.55 306.166,115.666 306.05,115.772 305.927,115.87 305.796,115.957 305.659,116.034 305.517,116.099 305.37,116.154 305.218,116.196 305.064,116.227 304.908,116.245 304.752,116.251 7.001,116.251 6.844,116.245 6.688,116.227 6.534,116.196 6.382,116.154 6.235,116.099 6.093,116.034 5.956,115.957 5.825,115.87 5.702,115.772 5.586,115.666 5.48,115.55 5.382,115.427 5.295,115.296 5.218,115.159 5.153,115.017 5.098,114.87 5.056,114.718 5.025,114.564 5.007,114.408 5,114.252 5.001,7.001 5.007,6.844 5.025,6.688 5.056,6.534 5.098,6.382 5.153,6.235 5.218,6.093 5.295,5.956 5.382,5.825 5.48,5.702 5.586,5.586 5.702,5.48 5.825,5.382 5.956,5.295 6.093,5.218 6.235,5.153 6.382,5.098 6.534,5.056 6.688,5.025 6.844,5.007 7.001,5 304.752,5.001 304.908,5.007 305.064,5.025 305.218,5.056 305.37,5.098 305.517,5.153 305.659,5.218 305.796,5.295 305.927,5.382 "
       style="fill:none;stroke:#000000;stroke-width:0.05mm"
       id="polygon314" />
    <polygon
       transform="translate(5.4303333,9.64)"
       points="9,113.251 9.31,113.203 9.588,113.061 9.81,112.839 9.952,112.561 10.001,112.251 9.952,111.942 9.81,111.664 9.588,111.442 9.31,111.3 9.001,111.251 8.691,111.3 8.413,111.442 8.19,111.664 8.049,111.942 8,112.251 8.049,112.561 8.19,112.839 8.413,113.061 8.691,113.203 "
       style="fill:none;stroke:#000000;stroke-width:0.05mm"
       id="polygon316" />
    <polygon
       transform="translate(5.4303333,9.64)"
       points="106.918,113.251 107.227,113.203 107.505,113.061 107.727,112.839 107.869,112.561 107.918,112.251 107.869,111.942 107.727,111.664 107.505,111.442 107.227,111.3 106.918,111.251 106.608,111.3 106.33,111.442 106.108,111.664 105.966,111.942 105.918,112.251 105.966,112.561 106.108,112.839 106.33,113.061 106.608,113.203 "
       style="fill:none;stroke:#000000;stroke-width:0.05mm"
       id="polygon318" />
    <polygon
       transform="translate(5.4303333,9.64)"
       points="204.835,113.251 205.144,113.203 205.422,113.061 205.644,112.839 205.786,112.561 205.835,112.251 205.786,111.942 205.644,111.664 205.422,111.442 205.144,111.3 204.835,111.251 204.525,111.3 204.247,111.442 204.025,111.664 203.883,111.942 203.835,112.251 203.883,112.561 204.025,112.839 204.247,113.061 204.525,113.203 "
       style="fill:none;stroke:#000000;stroke-width:0.05mm"
       id="polygon320" />
    <polygon
       transform="translate(5.4303333,9.64)"
       points="302.752,113.251 303.061,113.203 303.339,113.061 303.561,112.839 303.703,112.561 303.752,112.251 303.703,111.942 303.561,111.664 303.339,111.442 303.061,111.3 302.752,111.251 302.442,111.3 302.164,111.442 301.942,111.664 301.8,111.942 301.752,112.251 301.8,112.561 301.942,112.839 302.164,113.061 302.442,113.203 "
       style="fill:none;stroke:#000000;stroke-width:0.05mm"
       id="polygon322" />
    <polygon
       transform="translate(5.4303333,9.64)"
       points="90.594,96.426 89.769,96.426 89.769,99.226 90.594,99.226 90.594,105.495 92.319,105.495 92.319,106.696 95.619,106.696 95.619,105.495 97.344,105.495 97.344,101.025 136.969,101.025 136.969,101.626 136.169,101.626 136.169,104.726 136.969,104.726 136.969,105.726 150.969,105.726 150.969,104.726 151.769,104.726 151.769,101.626 150.969,101.626 150.969,101.025 190.594,101.025 190.594,105.495 192.319,105.495 192.319,106.696 195.619,106.696 195.619,105.495 197.344,105.495 197.344,99.226 198.169,99.226 198.169,96.426 197.344,96.426 197.344,93.196 190.594,93.196 190.594,96.426 150.969,96.426 150.969,95.825 151.769,95.825 151.769,92.726 150.969,92.726 150.969,91.726 136.969,91.726 136.969,92.726 136.169,92.726 136.169,95.825 136.969,95.825 136.969,96.426 97.344,96.426 97.344,93.196 90.594,93.196 "
       style="fill:none;stroke:#000000;stroke-width:0.05mm"
       id="polygon324" />
    <polygon
       transform="translate(5.4303333,9.64)"
       points="282.226,105.726 296.226,105.726 296.226,104.726 297.026,104.726 297.026,101.626 296.226,101.626 296.226,95.825 297.026,95.825 297.026,92.726 296.226,92.726 296.226,91.726 282.226,91.726 282.226,92.726 281.426,92.726 281.426,95.825 282.226,95.825 282.226,101.626 281.426,101.626 281.426,104.726 282.226,104.726 "
       style="fill:none;stroke:#000000;stroke-width:0.05mm"
       id="polygon326" />
    <polygon
       transform="translate(5.4303333,9.64)"
       points="263.176,105.726 277.176,105.726 277.176,104.726 277.976,104.726 277.976,101.626 277.176,101.626 277.176,95.825 277.976,95.825 277.976,92.726 277.176,92.726 277.176,91.726 263.176,91.726 263.176,92.726 262.376,92.726 262.376,95.825 263.176,95.825 263.176,101.626 262.376,101.626 262.376,104.726 263.176,104.726 "
       style="fill:none;stroke:#000000;stroke-width:0.05mm"
       id="polygon328" />
    <polygon
       transform="translate(5.4303333,9.64)"
       points="244.126,105.726 258.126,105.726 258.126,104.726 258.926,104.726 258.926,101.626 258.126,101.626 258.126,95.825 258.926,95.825 258.926,92.726 258.126,92.726 258.126,91.726 244.126,91.726 244.126,92.726 243.326,92.726 243.326,95.825 244.126,95.825 244.126,101.626 243.326,101.626 243.326,104.726 244.126,104.726 "
       style="fill:none;stroke:#000000;stroke-width:0.05mm"
       id="polygon330" />
    <polygon
       transform="translate(5.4303333,9.64)"
       points="225.076,105.726 239.076,105.726 239.076,104.726 239.876,104.726 239.876,101.626 239.076,101.626 239.076,95.825 239.876,95.825 239.876,92.726 239.076,92.726 239.076,91.726 225.076,91.726 225.076,92.726 224.276,92.726 224.276,95.825 225.076,95.825 225.076,101.626 224.276,101.626 224.276,104.726 225.076,104.726 "
       style="fill:none;stroke:#000000;stroke-width:0.05mm"
       id="polygon332" />
    <polygon
       transform="translate(5.4303333,9.64)"
       points="206.026,105.726 220.026,105.726 220.026,104.726 220.826,104.726 220.826,101.626 220.026,101.626 220.026,95.825 220.826,95.825 220.826,92.726 220.026,92.726 220.026,91.726 206.026,91.726 206.026,92.726 205.226,92.726 205.226,95.825 206.026,95.825 206.026,101.626 205.226,101.626 205.226,104.726 206.026,104.726 "
       style="fill:none;stroke:#000000;stroke-width:0.05mm"
       id="polygon334" />
    <polygon
       transform="translate(5.4303333,9.64)"
       points="65.532,105.726 79.532,105.726 79.532,104.726 80.332,104.726 80.332,101.626 79.532,101.626 79.532,95.825 80.332,95.825 80.332,92.726 79.532,92.726 79.532,91.726 65.532,91.726 65.532,92.726 64.731,92.726 64.731,95.825 65.532,95.825 65.532,101.626 64.731,101.626 64.731,104.726 65.532,104.726 "
       style="fill:none;stroke:#000000;stroke-width:0.05mm"
       id="polygon336" />
    <polygon
       transform="translate(5.4303333,9.64)"
       points="41.719,105.726 55.719,105.726 55.719,104.726 56.519,104.726 56.519,101.626 55.719,101.626 55.719,95.825 56.519,95.825 56.519,92.726 55.719,92.726 55.719,91.726 41.719,91.726 41.719,92.726 40.919,92.726 40.919,95.825 41.719,95.825 41.719,101.626 40.919,101.626 40.919,104.726 41.719,104.726 "
       style="fill:none;stroke:#000000;stroke-width:0.05mm"
       id="polygon338" />
    <polygon
       transform="translate(5.4303333,9.64)"
       points="17.907,105.726 31.907,105.726 31.907,104.726 32.707,104.726 32.707,101.626 31.907,101.626 31.907,95.825 32.707,95.825 32.707,92.726 31.907,92.726 31.907,91.726 17.907,91.726 17.907,92.726 17.107,92.726 17.107,95.825 17.907,95.825 17.907,101.626 17.107,101.626 17.107,104.726 17.907,104.726 "
       style="fill:none;stroke:#000000;stroke-width:0.05mm"
       id="polygon340" />
    <polygon
       transform="translate(5.4303333,9.64)"
       points="19.157,77.376 18.332,77.376 18.332,80.176 19.157,80.176 19.157,86.446 20.882,86.446 20.882,87.646 24.182,87.646 24.182,86.446 25.907,86.446 25.907,81.976 27.432,81.976 27.432,82.576 26.632,82.576 26.632,85.676 27.432,85.676 27.432,86.676 41.432,86.676 41.432,85.676 42.232,85.676 42.232,82.576 41.432,82.576 41.432,81.976 42.957,81.976 42.957,86.446 44.682,86.446 44.682,87.646 47.982,87.646 47.982,86.446 49.707,86.446 49.707,80.176 50.532,80.176 50.532,77.376 49.707,77.376 49.707,74.146 42.957,74.146 42.957,77.376 41.432,77.376 41.432,76.775 42.232,76.775 42.232,73.676 41.432,73.676 41.432,72.676 27.432,72.676 27.432,73.676 26.632,73.676 26.632,76.775 27.432,76.775 27.432,77.376 25.907,77.376 25.907,74.146 19.157,74.146 "
       style="fill:none;stroke:#000000;stroke-width:0.05mm"
       id="polygon342" />
    <polygon
       transform="translate(5.4303333,9.64)"
       points="282.226,86.676 296.226,86.676 296.226,85.676 297.026,85.676 297.026,82.576 296.226,82.576 296.226,76.775 297.026,76.775 297.026,73.676 296.226,73.676 296.226,72.676 282.226,72.676 282.226,73.676 281.426,73.676 281.426,76.775 282.226,76.775 282.226,82.576 281.426,82.576 281.426,85.676 282.226,85.676 "
       style="fill:none;stroke:#000000;stroke-width:0.05mm"
       id="polygon344" />
    <polygon
       transform="translate(5.4303333,9.64)"
       points="263.176,86.676 277.176,86.676 277.176,85.676 277.976,85.676 277.976,82.576 277.176,82.576 277.176,76.775 277.976,76.775 277.976,73.676 277.176,73.676 277.176,72.676 263.176,72.676 263.176,73.676 262.376,73.676 262.376,76.775 263.176,76.775 263.176,82.576 262.376,82.576 262.376,85.676 263.176,85.676 "
       style="fill:none;stroke:#000000;stroke-width:0.05mm"
       id="polygon346" />
    <polygon
       transform="translate(5.4303333,9.64)"
       points="236.982,86.676 250.982,86.676 250.982,85.676 251.782,85.676 251.782,82.576 250.982,82.576 250.982,76.775 251.782,76.775 251.782,73.676 250.982,73.676 250.982,72.676 236.982,72.676 236.982,73.676 236.182,73.676 236.182,76.775 236.982,76.775 236.982,82.576 236.182,82.576 236.182,85.676 236.982,85.676 "
       style="fill:none;stroke:#000000;stroke-width:0.05mm"
       id="polygon348" />
    <polygon
       transform="translate(5.4303333,9.64)"
       points="210.788,86.676 224.788,86.676 224.788,85.676 225.588,85.676 225.588,82.576 224.788,82.576 224.788,76.775 225.588,76.775 225.588,73.676 224.788,73.676 224.788,72.676 210.788,72.676 210.788,73.676 209.988,73.676 209.988,76.775 210.788,76.775 210.788,82.576 209.988,82.576 209.988,85.676 210.788,85.676 "
       style="fill:none;stroke:#000000;stroke-width:0.05mm"
       id="polygon350" />
    <polygon
       transform="translate(5.4303333,9.64)"
       points="191.738,86.676 205.738,86.676 205.738,85.676 206.538,85.676 206.538,82.576 205.738,82.576 205.738,76.775 206.538,76.775 206.538,73.676 205.738,73.676 205.738,72.676 191.738,72.676 191.738,73.676 190.938,73.676 190.938,76.775 191.738,76.775 191.738,82.576 190.938,82.576 190.938,85.676 191.738,85.676 "
       style="fill:none;stroke:#000000;stroke-width:0.05mm"
       id="polygon352" />
    <polygon
       transform="translate(5.4303333,9.64)"
       points="172.688,86.676 186.688,86.676 186.688,85.676 187.488,85.676 187.488,82.576 186.688,82.576 186.688,76.775 187.488,76.775 187.488,73.676 186.688,73.676 186.688,72.676 172.688,72.676 172.688,73.676 171.888,73.676 171.888,76.775 172.688,76.775 172.688,82.576 171.888,82.576 171.888,85.676 172.688,85.676 "
       style="fill:none;stroke:#000000;stroke-width:0.05mm"
       id="polygon354" />
    <polygon
       transform="translate(5.4303333,9.64)"
       points="153.638,86.676 167.638,86.676 167.638,85.676 168.438,85.676 168.438,82.576 167.638,82.576 167.638,76.775 168.438,76.775 168.438,73.676 167.638,73.676 167.638,72.676 153.638,72.676 153.638,73.676 152.838,73.676 152.838,76.775 153.638,76.775 153.638,82.576 152.838,82.576 152.838,85.676 153.638,85.676 "
       style="fill:none;stroke:#000000;stroke-width:0.05mm"
       id="polygon356" />
    <polygon
       transform="translate(5.4303333,9.64)"
       points="134.588,86.676 148.588,86.676 148.588,85.676 149.388,85.676 149.388,82.576 148.588,82.576 148.588,76.775 149.388,76.775 149.388,73.676 148.588,73.676 148.588,72.676 134.588,72.676 134.588,73.676 133.788,73.676 133.788,76.775 134.588,76.775 134.588,82.576 133.788,82.576 133.788,85.676 134.588,85.676 "
       style="fill:none;stroke:#000000;stroke-width:0.05mm"
       id="polygon358" />
    <polygon
       transform="translate(5.4303333,9.64)"
       points="115.538,86.676 129.538,86.676 129.538,85.676 130.337,85.676 130.337,82.576 129.538,82.576 129.538,76.775 130.337,76.775 130.337,73.676 129.538,73.676 129.538,72.676 115.538,72.676 115.538,73.676 114.738,73.676 114.738,76.775 115.538,76.775 115.538,82.576 114.738,82.576 114.738,85.676 115.538,85.676 "
       style="fill:none;stroke:#000000;stroke-width:0.05mm"
       id="polygon360" />
    <polygon
       transform="translate(5.4303333,9.64)"
       points="96.488,86.676 110.488,86.676 110.488,85.676 111.288,85.676 111.288,82.576 110.488,82.576 110.488,76.775 111.288,76.775 111.288,73.676 110.488,73.676 110.488,72.676 96.488,72.676 96.488,73.676 95.688,73.676 95.688,76.775 96.488,76.775 96.488,82.576 95.688,82.576 95.688,85.676 96.488,85.676 "
       style="fill:none;stroke:#000000;stroke-width:0.05mm"
       id="polygon362" />
    <polygon
       transform="translate(5.4303333,9.64)"
       points="77.438,86.676 91.438,86.676 91.438,85.676 92.238,85.676 92.238,82.576 91.438,82.576 91.438,76.775 92.238,76.775 92.238,73.676 91.438,73.676 91.438,72.676 77.438,72.676 77.438,73.676 76.638,73.676 76.638,76.775 77.438,76.775 77.438,82.576 76.638,82.576 76.638,85.676 77.438,85.676 "
       style="fill:none;stroke:#000000;stroke-width:0.05mm"
       id="polygon364" />
    <polygon
       transform="translate(5.4303333,9.64)"
       points="58.388,86.676 72.388,86.676 72.388,85.676 73.188,85.676 73.188,82.576 72.388,82.576 72.388,76.775 73.188,76.775 73.188,73.676 72.388,73.676 72.388,72.676 58.388,72.676 58.388,73.676 57.588,73.676 57.588,76.775 58.388,76.775 58.388,82.576 57.588,82.576 57.588,85.676 58.388,85.676 "
       style="fill:none;stroke:#000000;stroke-width:0.05mm"
       id="polygon366" />
    <polygon
       transform="translate(5.4303333,9.64)"
       points="262.044,58.326 261.219,58.326 261.219,61.126 262.044,61.126 262.044,67.396 263.769,67.396 263.769,68.596 267.069,68.596 267.069,67.396 268.794,67.396 268.794,62.926 270.319,62.926 270.319,63.526 269.519,63.526 269.519,66.626 270.319,66.626 270.319,67.626 284.319,67.626 284.319,66.626 285.119,66.626 285.119,63.526 284.319,63.526 284.319,62.926 285.844,62.926 285.844,67.396 287.569,67.396 287.569,68.596 290.869,68.596 290.869,67.396 292.594,67.396 292.594,61.126 293.419,61.126 293.419,58.326 292.594,58.326 292.594,55.096 285.844,55.096 285.844,58.326 284.319,58.326 284.319,57.726 285.119,57.726 285.119,54.626 284.319,54.626 284.319,53.626 270.319,53.626 270.319,54.626 269.519,54.626 269.519,57.726 270.319,57.726 270.319,58.326 268.794,58.326 268.794,55.096 262.044,55.096 "
       style="fill:none;stroke:#000000;stroke-width:0.05mm"
       id="polygon368" />
    <polygon
       transform="translate(5.4303333,9.64)"
       points="239.363,67.626 253.363,67.626 253.363,66.626 254.163,66.626 254.163,63.526 253.363,63.526 253.363,57.726 254.163,57.726 254.163,54.626 253.363,54.626 253.363,53.626 239.363,53.626 239.363,54.626 238.563,54.626 238.563,57.726 239.363,57.726 239.363,63.526 238.563,63.526 238.563,66.626 239.363,66.626 "
       style="fill:none;stroke:#000000;stroke-width:0.05mm"
       id="polygon370" />
    <polygon
       transform="translate(5.4303333,9.64)"
       points="220.313,67.626 234.313,67.626 234.313,66.626 235.113,66.626 235.113,63.526 234.313,63.526 234.313,57.726 235.113,57.726 235.113,54.626 234.313,54.626 234.313,53.626 220.313,53.626 220.313,54.626 219.513,54.626 219.513,57.726 220.313,57.726 220.313,63.526 219.513,63.526 219.513,66.626 220.313,66.626 "
       style="fill:none;stroke:#000000;stroke-width:0.05mm"
       id="polygon372" />
    <polygon
       transform="translate(5.4303333,9.64)"
       points="201.263,67.626 215.263,67.626 215.263,66.626 216.063,66.626 216.063,63.526 215.263,63.526 215.263,57.726 216.063,57.726 216.063,54.626 215.263,54.626 215.263,53.626 201.263,53.626 201.263,54.626 200.463,54.626 200.463,57.726 201.263,57.726 201.263,63.526 200.463,63.526 200.463,66.626 201.263,66.626 "
       style="fill:none;stroke:#000000;stroke-width:0.05mm"
       id="polygon374" />
    <polygon
       transform="translate(5.4303333,9.64)"
       points="182.213,67.626 196.213,67.626 196.213,66.626 197.013,66.626 197.013,63.526 196.213,63.526 196.213,57.726 197.013,57.726 197.013,54.626 196.213,54.626 196.213,53.626 182.213,53.626 182.213,54.626 181.413,54.626 181.413,57.726 182.213,57.726 182.213,63.526 181.413,63.526 181.413,66.626 182.213,66.626 "
       style="fill:none;stroke:#000000;stroke-width:0.05mm"
       id="polygon376" />
    <polygon
       transform="translate(5.4303333,9.64)"
       points="163.163,67.626 177.163,67.626 177.163,66.626 177.963,66.626 177.963,63.526 177.163,63.526 177.163,57.726 177.963,57.726 177.963,54.626 177.163,54.626 177.163,53.626 163.163,53.626 163.163,54.626 162.363,54.626 162.363,57.726 163.163,57.726 163.163,63.526 162.363,63.526 162.363,66.626 163.163,66.626 "
       style="fill:none;stroke:#000000;stroke-width:0.05mm"
       id="polygon378" />
    <polygon
       transform="translate(5.4303333,9.64)"
       points="144.113,67.626 158.113,67.626 158.113,66.626 158.913,66.626 158.913,63.526 158.113,63.526 158.113,57.726 158.913,57.726 158.913,54.626 158.113,54.626 158.113,53.626 144.113,53.626 144.113,54.626 143.313,54.626 143.313,57.726 144.113,57.726 144.113,63.526 143.313,63.526 143.313,66.626 144.113,66.626 "
       style="fill:none;stroke:#000000;stroke-width:0.05mm"
       id="polygon380" />
    <polygon
       transform="translate(5.4303333,9.64)"
       points="125.063,67.626 139.063,67.626 139.063,66.626 139.863,66.626 139.863,63.526 139.063,63.526 139.063,57.726 139.863,57.726 139.863,54.626 139.063,54.626 139.063,53.626 125.063,53.626 125.063,54.626 124.263,54.626 124.263,57.726 125.063,57.726 125.063,63.526 124.263,63.526 124.263,66.626 125.063,66.626 "
       style="fill:none;stroke:#000000;stroke-width:0.05mm"
       id="polygon382" />
    <polygon
       transform="translate(5.4303333,9.64)"
       points="106.013,67.626 120.013,67.626 120.013,66.626 120.813,66.626 120.813,63.526 120.013,63.526 120.013,57.726 120.813,57.726 120.813,54.626 120.013,54.626 120.013,53.626 106.013,53.626 106.013,54.626 105.213,54.626 105.213,57.726 106.013,57.726 106.013,63.526 105.213,63.526 105.213,66.626 106.013,66.626 "
       style="fill:none;stroke:#000000;stroke-width:0.05mm"
       id="polygon384" />
    <polygon
       transform="translate(5.4303333,9.64)"
       points="86.963,67.626 100.963,67.626 100.963,66.626 101.763,66.626 101.763,63.526 100.963,63.526 100.963,57.726 101.763,57.726 101.763,54.626 100.963,54.626 100.963,53.626 86.963,53.626 86.963,54.626 86.163,54.626 86.163,57.726 86.963,57.726 86.963,63.526 86.163,63.526 86.163,66.626 86.963,66.626 "
       style="fill:none;stroke:#000000;stroke-width:0.05mm"
       id="polygon386" />
    <polygon
       transform="translate(5.4303333,9.64)"
       points="67.913,67.626 81.913,67.626 81.913,66.626 82.713,66.626 82.713,63.526 81.913,63.526 81.913,57.726 82.713,57.726 82.713,54.626 81.913,54.626 81.913,53.626 67.913,53.626 67.913,54.626 67.113,54.626 67.113,57.726 67.913,57.726 67.913,63.526 67.113,63.526 67.113,66.626 67.913,66.626 "
       style="fill:none;stroke:#000000;stroke-width:0.05mm"
       id="polygon388" />
    <polygon
       transform="translate(5.4303333,9.64)"
       points="48.863,67.626 62.863,67.626 62.863,66.626 63.663,66.626 63.663,63.526 62.863,63.526 62.863,57.726 63.663,57.726 63.663,54.626 62.863,54.626 62.863,53.626 48.863,53.626 48.863,54.626 48.063,54.626 48.063,57.726 48.863,57.726 48.863,63.526 48.063,63.526 48.063,66.626 48.863,66.626 "
       style="fill:none;stroke:#000000;stroke-width:0.05mm"
       id="polygon390" />
    <polygon
       transform="translate(5.4303333,9.64)"
       points="22.669,67.626 36.669,67.626 36.669,66.626 37.469,66.626 37.469,63.526 36.669,63.526 36.669,57.726 37.469,57.726 37.469,54.626 36.669,54.626 36.669,53.626 22.669,53.626 22.669,54.626 21.869,54.626 21.869,57.726 22.669,57.726 22.669,63.526 21.869,63.526 21.869,66.626 22.669,66.626 "
       style="fill:none;stroke:#000000;stroke-width:0.05mm"
       id="polygon392" />
    <polygon
       transform="translate(5.4303333,9.64)"
       points="277.463,48.576 291.463,48.576 291.463,47.576 292.263,47.576 292.263,44.476 291.463,44.476 291.463,38.676 292.263,38.676 292.263,35.576 291.463,35.576 291.463,34.576 277.463,34.576 277.463,35.576 276.663,35.576 276.663,38.676 277.463,38.676 277.463,44.476 276.663,44.476 276.663,47.576 277.463,47.576 "
       style="fill:none;stroke:#000000;stroke-width:0.05mm"
       id="polygon394" />
    <polygon
       transform="translate(5.4303333,9.64)"
       points="253.651,48.576 267.651,48.576 267.651,47.576 268.451,47.576 268.451,44.476 267.651,44.476 267.651,38.676 268.451,38.676 268.451,35.576 267.651,35.576 267.651,34.576 253.651,34.576 253.651,35.576 252.851,35.576 252.851,38.676 253.651,38.676 253.651,44.476 252.851,44.476 252.851,47.576 253.651,47.576 "
       style="fill:none;stroke:#000000;stroke-width:0.05mm"
       id="polygon396" />
    <polygon
       transform="translate(5.4303333,9.64)"
       points="234.601,48.576 248.601,48.576 248.601,47.576 249.401,47.576 249.401,44.476 248.601,44.476 248.601,38.676 249.401,38.676 249.401,35.576 248.601,35.576 248.601,34.576 234.601,34.576 234.601,35.576 233.801,35.576 233.801,38.676 234.601,38.676 234.601,44.476 233.801,44.476 233.801,47.576 234.601,47.576 "
       style="fill:none;stroke:#000000;stroke-width:0.05mm"
       id="polygon398" />
    <polygon
       transform="translate(5.4303333,9.64)"
       points="215.551,48.576 229.551,48.576 229.551,47.576 230.351,47.576 230.351,44.476 229.551,44.476 229.551,38.676 230.351,38.676 230.351,35.576 229.551,35.576 229.551,34.576 215.551,34.576 215.551,35.576 214.751,35.576 214.751,38.676 215.551,38.676 215.551,44.476 214.751,44.476 214.751,47.576 215.551,47.576 "
       style="fill:none;stroke:#000000;stroke-width:0.05mm"
       id="polygon400" />
    <polygon
       transform="translate(5.4303333,9.64)"
       points="196.501,48.576 210.501,48.576 210.501,47.576 211.301,47.576 211.301,44.476 210.501,44.476 210.501,38.676 211.301,38.676 211.301,35.576 210.501,35.576 210.501,34.576 196.501,34.576 196.501,35.576 195.701,35.576 195.701,38.676 196.501,38.676 196.501,44.476 195.701,44.476 195.701,47.576 196.501,47.576 "
       style="fill:none;stroke:#000000;stroke-width:0.05mm"
       id="polygon402" />
    <polygon
       transform="translate(5.4303333,9.64)"
       points="177.451,48.576 191.451,48.576 191.451,47.576 192.251,47.576 192.251,44.476 191.451,44.476 191.451,38.676 192.251,38.676 192.251,35.576 191.451,35.576 191.451,34.576 177.451,34.576 177.451,35.576 176.651,35.576 176.651,38.676 177.451,38.676 177.451,44.476 176.651,44.476 176.651,47.576 177.451,47.576 "
       style="fill:none;stroke:#000000;stroke-width:0.05mm"
       id="polygon404" />
    <polygon
       transform="translate(5.4303333,9.64)"
       points="158.401,48.576 172.401,48.576 172.401,47.576 173.201,47.576 173.201,44.476 172.401,44.476 172.401,38.676 173.201,38.676 173.201,35.576 172.401,35.576 172.401,34.576 158.401,34.576 158.401,35.576 157.601,35.576 157.601,38.676 158.401,38.676 158.401,44.476 157.601,44.476 157.601,47.576 158.401,47.576 "
       style="fill:none;stroke:#000000;stroke-width:0.05mm"
       id="polygon406" />
    <polygon
       transform="translate(5.4303333,9.64)"
       points="139.351,48.576 153.351,48.576 153.351,47.576 154.151,47.576 154.151,44.476 153.351,44.476 153.351,38.676 154.151,38.676 154.151,35.576 153.351,35.576 153.351,34.576 139.351,34.576 139.351,35.576 138.55,35.576 138.55,38.676 139.351,38.676 139.351,44.476 138.55,44.476 138.55,47.576 139.351,47.576 "
       style="fill:none;stroke:#000000;stroke-width:0.05mm"
       id="polygon408" />
    <polygon
       transform="translate(5.4303333,9.64)"
       points="120.301,48.576 134.301,48.576 134.301,47.576 135.101,47.576 135.101,44.476 134.301,44.476 134.301,38.676 135.101,38.676 135.101,35.576 134.301,35.576 134.301,34.576 120.301,34.576 120.301,35.576 119.501,35.576 119.501,38.676 120.301,38.676 120.301,44.476 119.501,44.476 119.501,47.576 120.301,47.576 "
       style="fill:none;stroke:#000000;stroke-width:0.05mm"
       id="polygon410" />
    <polygon
       transform="translate(5.4303333,9.64)"
       points="101.251,48.576 115.251,48.576 115.251,47.576 116.051,47.576 116.051,44.476 115.251,44.476 115.251,38.676 116.051,38.676 116.051,35.576 115.251,35.576 115.251,34.576 101.251,34.576 101.251,35.576 100.451,35.576 100.451,38.676 101.251,38.676 101.251,44.476 100.451,44.476 100.451,47.576 101.251,47.576 "
       style="fill:none;stroke:#000000;stroke-width:0.05mm"
       id="polygon412" />
    <polygon
       transform="translate(5.4303333,9.64)"
       points="82.201,48.576 96.201,48.576 96.201,47.576 97.001,47.576 97.001,44.476 96.201,44.476 96.201,38.676 97.001,38.676 97.001,35.576 96.201,35.576 96.201,34.576 82.201,34.576 82.201,35.576 81.401,35.576 81.401,38.676 82.201,38.676 82.201,44.476 81.401,44.476 81.401,47.576 82.201,47.576 "
       style="fill:none;stroke:#000000;stroke-width:0.05mm"
       id="polygon414" />
    <polygon
       transform="translate(5.4303333,9.64)"
       points="63.151,48.576 77.151,48.576 77.151,47.576 77.951,47.576 77.951,44.476 77.151,44.476 77.151,38.676 77.951,38.676 77.951,35.576 77.151,35.576 77.151,34.576 63.151,34.576 63.151,35.576 62.351,35.576 62.351,38.676 63.151,38.676 63.151,44.476 62.351,44.476 62.351,47.576 63.151,47.576 "
       style="fill:none;stroke:#000000;stroke-width:0.05mm"
       id="polygon416" />
    <polygon
       transform="translate(5.4303333,9.64)"
       points="44.101,48.576 58.101,48.576 58.101,47.576 58.901,47.576 58.901,44.476 58.101,44.476 58.101,38.676 58.901,38.676 58.901,35.576 58.101,35.576 58.101,34.576 44.101,34.576 44.101,35.576 43.301,35.576 43.301,38.676 44.101,38.676 44.101,44.476 43.301,44.476 43.301,47.576 44.101,47.576 "
       style="fill:none;stroke:#000000;stroke-width:0.05mm"
       id="polygon418" />
    <polygon
       transform="translate(5.4303333,9.64)"
       points="20.288,48.576 34.288,48.576 34.288,47.576 35.088,47.576 35.088,44.476 34.288,44.476 34.288,38.676 35.088,38.676 35.088,35.576 34.288,35.576 34.288,34.576 20.288,34.576 20.288,35.576 19.488,35.576 19.488,38.676 20.288,38.676 20.288,44.476 19.488,44.476 19.488,47.576 20.288,47.576 "
       style="fill:none;stroke:#000000;stroke-width:0.05mm"
       id="polygon420" />
    <polygon
       transform="translate(5.4303333,9.64)"
       points="264.426,20.225 263.601,20.225 263.601,23.026 264.426,23.026 264.426,29.295 266.151,29.295 266.151,30.495 269.451,30.495 269.451,29.295 271.176,29.295 271.176,24.826 272.701,24.826 272.701,25.425 271.901,25.425 271.901,28.526 272.701,28.526 272.701,29.526 286.701,29.526 286.701,28.526 287.501,28.526 287.501,25.425 286.701,25.425 286.701,24.826 288.226,24.826 288.226,29.295 289.951,29.295 289.951,30.495 293.251,30.495 293.251,29.295 294.976,29.295 294.976,23.026 295.801,23.026 295.801,20.225 294.976,20.225 294.976,16.995 288.226,16.995 288.226,20.225 286.701,20.225 286.701,19.626 287.501,19.626 287.501,16.526 286.701,16.526 286.701,15.525 272.701,15.525 272.701,16.526 271.901,16.526 271.901,19.626 272.701,19.626 272.701,20.225 271.176,20.225 271.176,16.995 264.426,16.995 "
       style="fill:none;stroke:#000000;stroke-width:0.05mm"
       id="polygon422" />
    <polygon
       transform="translate(5.4303333,9.64)"
       points="244.126,29.526 258.126,29.526 258.126,28.526 258.926,28.526 258.926,25.425 258.126,25.425 258.126,19.626 258.926,19.626 258.926,16.526 258.126,16.526 258.126,15.525 244.126,15.525 244.126,16.526 243.326,16.526 243.326,19.626 244.126,19.626 244.126,25.425 243.326,25.425 243.326,28.526 244.126,28.526 "
       style="fill:none;stroke:#000000;stroke-width:0.05mm"
       id="polygon424" />
    <polygon
       transform="translate(5.4303333,9.64)"
       points="225.076,29.526 239.076,29.526 239.076,28.526 239.876,28.526 239.876,25.425 239.076,25.425 239.076,19.626 239.876,19.626 239.876,16.526 239.076,16.526 239.076,15.525 225.076,15.525 225.076,16.526 224.276,16.526 224.276,19.626 225.076,19.626 225.076,25.425 224.276,25.425 224.276,28.526 225.076,28.526 "
       style="fill:none;stroke:#000000;stroke-width:0.05mm"
       id="polygon426" />
    <polygon
       transform="translate(5.4303333,9.64)"
       points="206.026,29.526 220.026,29.526 220.026,28.526 220.826,28.526 220.826,25.425 220.026,25.425 220.026,19.626 220.826,19.626 220.826,16.526 220.026,16.526 220.026,15.525 206.026,15.525 206.026,16.526 205.226,16.526 205.226,19.626 206.026,19.626 206.026,25.425 205.226,25.425 205.226,28.526 206.026,28.526 "
       style="fill:none;stroke:#000000;stroke-width:0.05mm"
       id="polygon428" />
    <polygon
       transform="translate(5.4303333,9.64)"
       points="186.976,29.526 200.976,29.526 200.976,28.526 201.776,28.526 201.776,25.425 200.976,25.425 200.976,19.626 201.776,19.626 201.776,16.526 200.976,16.526 200.976,15.525 186.976,15.525 186.976,16.526 186.176,16.526 186.176,19.626 186.976,19.626 186.976,25.425 186.176,25.425 186.176,28.526 186.976,28.526 "
       style="fill:none;stroke:#000000;stroke-width:0.05mm"
       id="polygon430" />
    <polygon
       transform="translate(5.4303333,9.64)"
       points="167.926,29.526 181.926,29.526 181.926,28.526 182.726,28.526 182.726,25.425 181.926,25.425 181.926,19.626 182.726,19.626 182.726,16.526 181.926,16.526 181.926,15.525 167.926,15.525 167.926,16.526 167.126,16.526 167.126,19.626 167.926,19.626 167.926,25.425 167.126,25.425 167.126,28.526 167.926,28.526 "
       style="fill:none;stroke:#000000;stroke-width:0.05mm"
       id="polygon432" />
    <polygon
       transform="translate(5.4303333,9.64)"
       points="148.876,29.526 162.876,29.526 162.876,28.526 163.676,28.526 163.676,25.425 162.876,25.425 162.876,19.626 163.676,19.626 163.676,16.526 162.876,16.526 162.876,15.525 148.876,15.525 148.876,16.526 148.076,16.526 148.076,19.626 148.876,19.626 148.876,25.425 148.076,25.425 148.076,28.526 148.876,28.526 "
       style="fill:none;stroke:#000000;stroke-width:0.05mm"
       id="polygon434" />
    <polygon
       transform="translate(5.4303333,9.64)"
       points="129.825,29.526 143.826,29.526 143.826,28.526 144.626,28.526 144.626,25.425 143.826,25.425 143.826,19.626 144.626,19.626 144.626,16.526 143.826,16.526 143.826,15.525 129.825,15.525 129.825,16.526 129.025,16.526 129.025,19.626 129.825,19.626 129.825,25.425 129.025,25.425 129.025,28.526 129.825,28.526 "
       style="fill:none;stroke:#000000;stroke-width:0.05mm"
       id="polygon436" />
    <polygon
       transform="translate(5.4303333,9.64)"
       points="110.775,29.526 124.775,29.526 124.775,28.526 125.575,28.526 125.575,25.425 124.775,25.425 124.775,19.626 125.575,19.626 125.575,16.526 124.775,16.526 124.775,15.525 110.775,15.525 110.775,16.526 109.976,16.526 109.976,19.626 110.775,19.626 110.775,25.425 109.976,25.425 109.976,28.526 110.775,28.526 "
       style="fill:none;stroke:#000000;stroke-width:0.05mm"
       id="polygon438" />
    <polygon
       transform="translate(5.4303333,9.64)"
       points="91.726,29.526 105.726,29.526 105.726,28.526 106.525,28.526 106.525,25.425 105.726,25.425 105.726,19.626 106.525,19.626 106.525,16.526 105.726,16.526 105.726,15.525 91.726,15.525 91.726,16.526 90.926,16.526 90.926,19.626 91.726,19.626 91.726,25.425 90.926,25.425 90.926,28.526 91.726,28.526 "
       style="fill:none;stroke:#000000;stroke-width:0.05mm"
       id="polygon440" />
    <polygon
       transform="translate(5.4303333,9.64)"
       points="72.676,29.526 86.676,29.526 86.676,28.526 87.476,28.526 87.476,25.425 86.676,25.425 86.676,19.626 87.476,19.626 87.476,16.526 86.676,16.526 86.676,15.525 72.676,15.525 72.676,16.526 71.876,16.526 71.876,19.626 72.676,19.626 72.676,25.425 71.876,25.425 71.876,28.526 72.676,28.526 "
       style="fill:none;stroke:#000000;stroke-width:0.05mm"
       id="polygon442" />
    <polygon
       transform="translate(5.4303333,9.64)"
       points="53.626,29.526 67.626,29.526 67.626,28.526 68.426,28.526 68.426,25.425 67.626,25.425 67.626,19.626 68.426,19.626 68.426,16.526 67.626,16.526 67.626,15.525 53.626,15.525 53.626,16.526 52.826,16.526 52.826,19.626 53.626,19.626 53.626,25.425 52.826,25.425 52.826,28.526 53.626,28.526 "
       style="fill:none;stroke:#000000;stroke-width:0.05mm"
       id="polygon444" />
    <polygon
       transform="translate(5.4303333,9.64)"
       points="34.576,29.526 48.576,29.526 48.576,28.526 49.376,28.526 49.376,25.425 48.576,25.425 48.576,19.626 49.376,19.626 49.376,16.526 48.576,16.526 48.576,15.525 34.576,15.525 34.576,16.526 33.776,16.526 33.776,19.626 34.576,19.626 34.576,25.425 33.776,25.425 33.776,28.526 34.576,28.526 "
       style="fill:none;stroke:#000000;stroke-width:0.05mm"
       id="polygon446" />
    <polygon
       transform="translate(5.4303333,9.64)"
       points="15.525,29.526 29.526,29.526 29.526,28.526 30.326,28.526 30.326,25.425 29.526,25.425 29.526,19.626 30.326,19.626 30.326,16.526 29.526,16.526 29.526,15.525 15.525,15.525 15.525,16.526 14.725,16.526 14.725,19.626 15.525,19.626 15.525,25.425 14.725,25.425 14.725,28.526 15.525,28.526 "
       style="fill:none;stroke:#000000;stroke-width:0.05mm"
       id="polygon448" />
    <polygon
       transform="translate(5.4303333,9.64)"
       points="9,10.001 9.31,9.952 9.588,9.81 9.81,9.588 9.952,9.31 10.001,9.001 9.952,8.691 9.81,8.413 9.588,8.19 9.31,8.049 9.001,8.001 8.691,8.049 8.413,8.19 8.19,8.413 8.049,8.691 8,9.001 8.049,9.31 8.19,9.588 8.413,9.81 8.691,9.952 "
       style="fill:none;stroke:#000000;stroke-width:0.05mm"
       id="polygon450" />
    <polygon
       transform="translate(5.4303333,9.64)"
       points="302.752,10.001 303.061,9.952 303.339,9.81 303.561,9.588 303.703,9.31 303.752,9.001 303.703,8.691 303.561,8.413 303.339,8.19 303.061,8.049 302.752,8.001 302.442,8.049 302.164,8.19 301.942,8.413 301.8,8.691 301.752,9.001 301.8,9.31 301.942,9.588 302.164,9.81 302.442,9.952 "
       style="fill:none;stroke:#000000;stroke-width:0.05mm"
       id="polygon452" />
    <polygon
       transform="translate(5.4303333,9.64)"
       points="204.835,10.001 205.144,9.952 205.422,9.81 205.644,9.588 205.786,9.31 205.835,9.001 205.786,8.691 205.644,8.413 205.422,8.19 205.144,8.049 204.835,8.001 204.525,8.049 204.247,8.19 204.025,8.413 203.883,8.691 203.835,9.001 203.883,9.31 204.025,9.588 204.247,9.81 204.525,9.952 "
       style="fill:none;stroke:#000000;stroke-width:0.05mm"
       id="polygon454" />
    <polygon
       transform="translate(5.4303333,9.64)"
       points="106.918,10.001 107.227,9.952 107.505,9.81 107.727,9.588 107.869,9.31 107.918,9.001 107.869,8.691 107.727,8.413 107.505,8.19 107.227,8.049 106.918,8.001 106.608,8.049 106.33,8.19 106.108,8.413 105.966,8.691 105.918,9.001 105.966,9.31 106.108,9.588 106.33,9.81 106.608,9.952 "
       style="fill:none;stroke:#000000;stroke-width:0.05mm"
       id="polygon456" />
    <polygon
       transform="translate(5.207,131.16567)"
       points="36.876,13.001 36.876,5 304.752,5.001 304.908,5.007 305.064,5.025 305.218,5.056 305.37,5.098 305.517,5.153 305.659,5.218 305.796,5.295 305.927,5.382 306.05,5.48 306.166,5.586 306.272,5.702 306.37,5.825 306.457,5.956 306.534,6.093 306.599,6.235 306.654,6.382 306.696,6.534 306.727,6.688 306.745,6.844 306.752,7.001 306.752,114.251 306.745,114.408 306.727,114.564 306.696,114.718 306.654,114.87 306.599,115.017 306.534,115.159 306.457,115.296 306.37,115.427 306.272,115.55 306.166,115.666 306.05,115.772 305.927,115.87 305.796,115.957 305.659,116.034 305.517,116.099 305.37,116.154 305.218,116.196 305.064,116.227 304.908,116.245 304.752,116.251 7.001,116.251 6.844,116.245 6.688,116.227 6.534,116.196 6.382,116.154 6.235,116.099 6.093,116.034 5.956,115.957 5.825,115.87 5.702,115.772 5.586,115.666 5.48,115.55 5.382,115.427 5.295,115.296 5.218,115.159 5.153,115.017 5.098,114.87 5.056,114.718 5.025,114.564 5.007,114.408 5,114.252 5.001,7.001 5.007,6.844 5.025,6.688 5.056,6.534 5.098,6.382 5.153,6.235 5.218,6.093 5.295,5.956 5.382,5.825 5.48,5.702 5.586,5.586 5.702,5.48 5.825,5.382 5.956,5.295 6.093,5.218 6.235,5.153 6.382,5.098 6.534,5.056 6.688,5.025 6.844,5.007 7.001,5 26.876,5 26.876,13.001 13.001,13.001 13.001,108.251 298.752,108.251 298.752,13.001 "
       style="fill:none;stroke:#000000;stroke-width:0.05mm"
       id="polygon1204" />
    <polygon
       transform="translate(5.207,131.16567)"
       points="8.049,112.561 8.19,112.839 8.413,113.061 8.691,113.203 9,113.251 9.31,113.203 9.588,113.061 9.81,112.839 9.952,112.561 10.001,112.251 9.952,111.942 9.81,111.664 9.588,111.442 9.31,111.3 9.001,111.251 8.691,111.3 8.413,111.442 8.19,111.664 8.049,111.942 8,112.251 "
       style="fill:none;stroke:#000000;stroke-width:0.05mm"
       id="polygon1206" />
    <polygon
       transform="translate(5.207,131.16567)"
       points="105.966,112.561 106.108,112.839 106.33,113.061 106.608,113.203 106.918,113.251 107.227,113.203 107.505,113.061 107.727,112.839 107.869,112.561 107.918,112.251 107.869,111.942 107.727,111.664 107.505,111.442 107.227,111.3 106.918,111.251 106.608,111.3 106.33,111.442 106.108,111.664 105.966,111.942 105.918,112.251 "
       style="fill:none;stroke:#000000;stroke-width:0.05mm"
       id="polygon1208" />
    <polygon
       transform="translate(5.207,131.16567)"
       points="203.883,112.561 204.025,112.839 204.247,113.061 204.525,113.203 204.835,113.251 205.144,113.203 205.422,113.061 205.644,112.839 205.786,112.561 205.835,112.251 205.786,111.942 205.644,111.664 205.422,111.442 205.144,111.3 204.835,111.251 204.525,111.3 204.247,111.442 204.025,111.664 203.883,111.942 203.835,112.251 "
       style="fill:none;stroke:#000000;stroke-width:0.05mm"
       id="polygon1210" />
    <polygon
       transform="translate(5.207,131.16567)"
       points="301.8,112.561 301.942,112.839 302.164,113.061 302.442,113.203 302.752,113.251 303.061,113.203 303.339,113.061 303.561,112.839 303.703,112.561 303.752,112.251 303.703,111.942 303.561,111.664 303.339,111.442 303.061,111.3 302.752,111.251 302.442,111.3 302.164,111.442 301.942,111.664 301.8,111.942 301.752,112.251 "
       style="fill:none;stroke:#000000;stroke-width:0.05mm"
       id="polygon1212" />
    <polygon
       transform="translate(5.207,131.16567)"
       points="8.049,9.31 8.19,9.588 8.413,9.81 8.691,9.952 9,10.001 9.31,9.952 9.588,9.81 9.81,9.588 9.952,9.31 10.001,9.001 9.952,8.691 9.81,8.413 9.588,8.19 9.31,8.049 9.001,8.001 8.691,8.049 8.413,8.19 8.19,8.413 8.049,8.691 8,9.001 "
       style="fill:none;stroke:#000000;stroke-width:0.05mm"
       id="polygon1214" />
    <polygon
       transform="translate(5.207,131.16567)"
       points="301.8,9.31 301.942,9.588 302.164,9.81 302.442,9.952 302.752,10.001 303.061,9.952 303.339,9.81 303.561,9.588 303.703,9.31 303.752,9.001 303.703,8.691 303.561,8.413 303.339,8.19 303.061,8.049 302.752,8.001 302.442,8.049 302.164,8.19 301.942,8.413 301.8,8.691 301.752,9.001 "
       style="fill:none;stroke:#000000;stroke-width:0.05mm"
       id="polygon1216" />
    <polygon
       transform="translate(5.207,131.16567)"
       points="203.883,9.31 204.025,9.588 204.247,9.81 204.525,9.952 204.835,10.001 205.144,9.952 205.422,9.81 205.644,9.588 205.786,9.31 205.835,9.001 205.786,8.691 205.644,8.413 205.422,8.19 205.144,8.049 204.835,8.001 204.525,8.049 204.247,8.19 204.025,8.413 203.883,8.691 203.835,9.001 "
       style="fill:none;stroke:#000000;stroke-width:0.05mm"
       id="polygon1218" />
    <polygon
       transform="translate(5.207,131.16567)"
       points="105.966,9.31 106.108,9.588 106.33,9.81 106.608,9.952 106.918,10.001 107.227,9.952 107.505,9.81 107.727,9.588 107.869,9.31 107.918,9.001 107.869,8.691 107.727,8.413 107.505,8.19 107.227,8.049 106.918,8.001 106.608,8.049 106.33,8.19 106.108,8.413 105.966,8.691 105.918,9.001 "
       style="fill:none;stroke:#000000;stroke-width:0.05mm"
       id="polygon1220" />
    <polygon
       transform="translate(5.4573333,251.58233)"
       points="36.876,13.001 36.876,5 304.752,5.001 304.908,5.007 305.064,5.025 305.218,5.056 305.37,5.098 305.517,5.153 305.659,5.218 305.796,5.295 305.927,5.382 306.05,5.48 306.166,5.586 306.272,5.702 306.37,5.825 306.457,5.956 306.534,6.093 306.599,6.235 306.654,6.382 306.696,6.534 306.727,6.688 306.745,6.844 306.752,7.001 306.752,114.251 306.745,114.408 306.727,114.564 306.696,114.718 306.654,114.87 306.599,115.017 306.534,115.159 306.457,115.296 306.37,115.427 306.272,115.55 306.166,115.666 306.05,115.772 305.927,115.87 305.796,115.957 305.659,116.034 305.517,116.099 305.37,116.154 305.218,116.196 305.064,116.227 304.908,116.245 304.752,116.251 7.001,116.251 6.844,116.245 6.688,116.227 6.534,116.196 6.382,116.154 6.235,116.099 6.093,116.034 5.956,115.957 5.825,115.87 5.702,115.772 5.586,115.666 5.48,115.55 5.382,115.427 5.295,115.296 5.218,115.159 5.153,115.017 5.098,114.87 5.056,114.718 5.025,114.564 5.007,114.408 5,114.252 5.001,7.001 5.007,6.844 5.025,6.688 5.056,6.534 5.098,6.382 5.153,6.235 5.218,6.093 5.295,5.956 5.382,5.825 5.48,5.702 5.586,5.586 5.702,5.48 5.825,5.382 5.956,5.295 6.093,5.218 6.235,5.153 6.382,5.098 6.534,5.056 6.688,5.025 6.844,5.007 7.001,5 26.876,5 26.876,13.001 13.001,13.001 13.001,108.251 298.752,108.251 298.752,13.001 "
       style="fill:none;stroke:#000000;stroke-width:0.05mm"
       id="polygon1204-0" />
    <polygon
       transform="translate(5.4573333,251.58233)"
       points="8.049,112.561 8.19,112.839 8.413,113.061 8.691,113.203 9,113.251 9.31,113.203 9.588,113.061 9.81,112.839 9.952,112.561 10.001,112.251 9.952,111.942 9.81,111.664 9.588,111.442 9.31,111.3 9.001,111.251 8.691,111.3 8.413,111.442 8.19,111.664 8.049,111.942 8,112.251 "
       style="fill:none;stroke:#000000;stroke-width:0.05mm"
       id="polygon1206-3" />
    <polygon
       transform="translate(5.4573333,251.58233)"
       points="105.966,112.561 106.108,112.839 106.33,113.061 106.608,113.203 106.918,113.251 107.227,113.203 107.505,113.061 107.727,112.839 107.869,112.561 107.918,112.251 107.869,111.942 107.727,111.664 107.505,111.442 107.227,111.3 106.918,111.251 106.608,111.3 106.33,111.442 106.108,111.664 105.966,111.942 105.918,112.251 "
       style="fill:none;stroke:#000000;stroke-width:0.05mm"
       id="polygon1208-2" />
    <polygon
       transform="translate(5.4573333,251.58233)"
       points="203.883,112.561 204.025,112.839 204.247,113.061 204.525,113.203 204.835,113.251 205.144,113.203 205.422,113.061 205.644,112.839 205.786,112.561 205.835,112.251 205.786,111.942 205.644,111.664 205.422,111.442 205.144,111.3 204.835,111.251 204.525,111.3 204.247,111.442 204.025,111.664 203.883,111.942 203.835,112.251 "
       style="fill:none;stroke:#000000;stroke-width:0.05mm"
       id="polygon1210-6" />
    <polygon
       transform="translate(5.4573333,251.58233)"
       points="301.8,112.561 301.942,112.839 302.164,113.061 302.442,113.203 302.752,113.251 303.061,113.203 303.339,113.061 303.561,112.839 303.703,112.561 303.752,112.251 303.703,111.942 303.561,111.664 303.339,111.442 303.061,111.3 302.752,111.251 302.442,111.3 302.164,111.442 301.942,111.664 301.8,111.942 301.752,112.251 "
       style="fill:none;stroke:#000000;stroke-width:0.05mm"
       id="polygon1212-0" />
    <polygon
       transform="translate(5.4573333,251.58233)"
       points="8.049,9.31 8.19,9.588 8.413,9.81 8.691,9.952 9,10.001 9.31,9.952 9.588,9.81 9.81,9.588 9.952,9.31 10.001,9.001 9.952,8.691 9.81,8.413 9.588,8.19 9.31,8.049 9.001,8.001 8.691,8.049 8.413,8.19 8.19,8.413 8.049,8.691 8,9.001 "
       style="fill:none;stroke:#000000;stroke-width:0.05mm"
       id="polygon1214-7" />
    <polygon
       transform="translate(5.4573333,251.58233)"
       points="301.8,9.31 301.942,9.588 302.164,9.81 302.442,9.952 302.752,10.001 303.061,9.952 303.339,9.81 303.561,9.588 303.703,9.31 303.752,9.001 303.703,8.691 303.561,8.413 303.339,8.19 303.061,8.049 302.752,8.001 302.442,8.049 302.164,8.19 301.942,8.413 301.8,8.691 301.752,9.001 "
       style="fill:none;stroke:#000000;stroke-width:0.05mm"
       id="polygon1216-9" />
    <polygon
       transform="translate(5.4573333,251.58233)"
       points="203.883,9.31 204.025,9.588 204.247,9.81 204.525,9.952 204.835,10.001 205.144,9.952 205.422,9.81 205.644,9.588 205.786,9.31 205.835,9.001 205.786,8.691 205.644,8.413 205.422,8.19 205.144,8.049 204.835,8.001 204.525,8.049 204.247,8.19 204.025,8.413 203.883,8.691 203.835,9.001 "
       style="fill:none;stroke:#000000;stroke-width:0.05mm"
       id="polygon1218-3" />
    <polygon
       transform="translate(5.4573333,251.58233)"
       points="105.966,9.31 106.108,9.588 106.33,9.81 106.608,9.952 106.918,10.001 107.227,9.952 107.505,9.81 107.727,9.588 107.869,9.31 107.918,9.001 107.869,8.691 107.727,8.413 107.505,8.19 107.227,8.049 106.918,8.001 106.608,8.049 106.33,8.19 106.108,8.413 105.966,8.691 105.918,9.001 "
       style="fill:none;stroke:#000000;stroke-width:0.05mm"
       id="polygon1220-2" />
    <polygon
       transform="translate(5.1166667,377.60067)"
       points="305.659,5.218 305.796,5.295 305.927,5.382 306.05,5.48 306.166,5.586 306.272,5.702 306.37,5.825 306.457,5.956 306.534,6.093 306.599,6.235 306.654,6.382 306.696,6.534 306.727,6.688 306.745,6.844 306.752,7.001 306.752,114.251 306.745,114.408 306.727,114.564 306.696,114.718 306.654,114.87 306.599,115.017 306.534,115.159 306.457,115.296 306.37,115.427 306.272,115.55 306.166,115.666 306.05,115.772 305.927,115.87 305.796,115.957 305.659,116.034 305.517,116.099 305.37,116.154 305.218,116.196 305.064,116.227 304.908,116.245 304.752,116.251 7.001,116.251 6.844,116.245 6.688,116.227 6.534,116.196 6.382,116.154 6.235,116.099 6.093,116.034 5.956,115.957 5.825,115.87 5.702,115.772 5.586,115.666 5.48,115.55 5.382,115.427 5.295,115.296 5.218,115.159 5.153,115.017 5.098,114.87 5.056,114.718 5.025,114.564 5.007,114.408 5,114.252 5.001,7.001 5.007,6.844 5.025,6.688 5.056,6.534 5.098,6.382 5.153,6.235 5.218,6.093 5.295,5.956 5.382,5.825 5.48,5.702 5.586,5.586 5.702,5.48 5.825,5.382 5.956,5.295 6.093,5.218 6.235,5.153 6.382,5.098 6.534,5.056 6.688,5.025 6.844,5.007 7.001,5 304.752,5.001 304.908,5.007 305.064,5.025 305.218,5.056 305.37,5.098 305.517,5.153 "
       style="fill:none;stroke:#000000;stroke-width:0.05mm"
       id="polygon1150" />
    <polygon
       transform="translate(5.1166667,377.60067)"
       points="8.19,112.839 8.413,113.061 8.691,113.203 9,113.251 9.31,113.203 9.588,113.061 9.81,112.839 9.952,112.561 10.001,112.251 9.952,111.942 9.81,111.664 9.588,111.442 9.31,111.3 9.001,111.251 8.691,111.3 8.413,111.442 8.19,111.664 8.049,111.942 8,112.251 8.049,112.561 "
       style="fill:none;stroke:#000000;stroke-width:0.05mm"
       id="polygon1152" />
    <polygon
       transform="translate(5.1166667,377.60067)"
       points="106.108,112.839 106.33,113.061 106.608,113.203 106.918,113.251 107.227,113.203 107.505,113.061 107.727,112.839 107.869,112.561 107.918,112.251 107.869,111.942 107.727,111.664 107.505,111.442 107.227,111.3 106.918,111.251 106.608,111.3 106.33,111.442 106.108,111.664 105.966,111.942 105.918,112.251 105.966,112.561 "
       style="fill:none;stroke:#000000;stroke-width:0.05mm"
       id="polygon1154" />
    <polygon
       transform="translate(5.1166667,377.60067)"
       points="204.025,112.839 204.247,113.061 204.525,113.203 204.835,113.251 205.144,113.203 205.422,113.061 205.644,112.839 205.786,112.561 205.835,112.251 205.786,111.942 205.644,111.664 205.422,111.442 205.144,111.3 204.835,111.251 204.525,111.3 204.247,111.442 204.025,111.664 203.883,111.942 203.835,112.251 203.883,112.561 "
       style="fill:none;stroke:#000000;stroke-width:0.05mm"
       id="polygon1156" />
    <polygon
       transform="translate(5.1166667,377.60067)"
       points="301.942,112.839 302.164,113.061 302.442,113.203 302.752,113.251 303.061,113.203 303.339,113.061 303.561,112.839 303.703,112.561 303.752,112.251 303.703,111.942 303.561,111.664 303.339,111.442 303.061,111.3 302.752,111.251 302.442,111.3 302.164,111.442 301.942,111.664 301.8,111.942 301.752,112.251 301.8,112.561 "
       style="fill:none;stroke:#000000;stroke-width:0.05mm"
       id="polygon1158" />
    <polygon
       transform="translate(5.1166667,377.60067)"
       points="298.752,108.251 298.752,13.001 13.001,13.001 13.001,108.251 "
       style="fill:none;stroke:#000000;stroke-width:0.05mm"
       id="polygon1160" />
    <polygon
       transform="translate(5.1166667,377.60067)"
       points="8.19,9.588 8.413,9.81 8.691,9.952 9,10.001 9.31,9.952 9.588,9.81 9.81,9.588 9.952,9.31 10.001,9.001 9.952,8.691 9.81,8.413 9.588,8.19 9.31,8.049 9.001,8.001 8.691,8.049 8.413,8.19 8.19,8.413 8.049,8.691 8,9.001 8.049,9.31 "
       style="fill:none;stroke:#000000;stroke-width:0.05mm"
       id="polygon1162" />
    <polygon
       transform="translate(5.1166667,377.60067)"
       points="301.942,9.588 302.164,9.81 302.442,9.952 302.752,10.001 303.061,9.952 303.339,9.81 303.561,9.588 303.703,9.31 303.752,9.001 303.703,8.691 303.561,8.413 303.339,8.19 303.061,8.049 302.752,8.001 302.442,8.049 302.164,8.19 301.942,8.413 301.8,8.691 301.752,9.001 301.8,9.31 "
       style="fill:none;stroke:#000000;stroke-width:0.05mm"
       id="polygon1164" />
    <polygon
       transform="translate(5.1166667,377.60067)"
       points="204.025,9.588 204.247,9.81 204.525,9.952 204.835,10.001 205.144,9.952 205.422,9.81 205.644,9.588 205.786,9.31 205.835,9.001 205.786,8.691 205.644,8.413 205.422,8.19 205.144,8.049 204.835,8.001 204.525,8.049 204.247,8.19 204.025,8.413 203.883,8.691 203.835,9.001 203.883,9.31 "
       style="fill:none;stroke:#000000;stroke-width:0.05mm"
       id="polygon1166" />
    <polygon
       transform="translate(5.1166667,377.60067)"
       points="106.108,9.588 106.33,9.81 106.608,9.952 106.918,10.001 107.227,9.952 107.505,9.81 107.727,9.588 107.869,9.31 107.918,9.001 107.869,8.691 107.727,8.413 107.505,8.19 107.227,8.049 106.918,8.001 106.608,8.049 106.33,8.19 106.108,8.413 105.966,8.691 105.918,9.001 105.966,9.31 "
       style="fill:none;stroke:#000000;stroke-width:0.05mm"
       id="polygon1168" />
    <polygon
       transform="translate(328.11584,9.7691663)"
       points="306.166,5.586 306.272,5.702 306.37,5.825 306.457,5.956 306.534,6.093 306.599,6.235 306.654,6.382 306.696,6.534 306.727,6.688 306.745,6.844 306.752,7.001 306.752,114.251 306.745,114.408 306.727,114.564 306.696,114.718 306.654,114.87 306.599,115.017 306.534,115.159 306.457,115.296 306.37,115.427 306.272,115.55 306.166,115.666 306.05,115.772 305.927,115.87 305.796,115.957 305.659,116.034 305.517,116.099 305.37,116.154 305.218,116.196 305.064,116.227 304.908,116.245 304.752,116.251 7.001,116.251 6.844,116.245 6.688,116.227 6.534,116.196 6.382,116.154 6.235,116.099 6.093,116.034 5.956,115.957 5.825,115.87 5.702,115.772 5.586,115.666 5.48,115.55 5.382,115.427 5.295,115.296 5.218,115.159 5.153,115.017 5.098,114.87 5.056,114.718 5.025,114.564 5.007,114.408 5,114.252 5.001,7.001 5.007,6.844 5.025,6.688 5.056,6.534 5.098,6.382 5.153,6.235 5.218,6.093 5.295,5.956 5.382,5.825 5.48,5.702 5.586,5.586 5.702,5.48 5.825,5.382 5.956,5.295 6.093,5.218 6.235,5.153 6.382,5.098 6.534,5.056 6.688,5.025 6.844,5.007 7.001,5 304.752,5.001 304.908,5.007 305.064,5.025 305.218,5.056 305.37,5.098 305.517,5.153 305.659,5.218 305.796,5.295 305.927,5.382 306.05,5.48 "
       style="fill:none;stroke:#000000;stroke-width:0.05mm"
       id="polygon1096" />
    <polygon
       transform="translate(328.11584,9.7691663)"
       points="9.31,113.203 9.588,113.061 9.81,112.839 9.952,112.561 10.001,112.251 9.952,111.942 9.81,111.664 9.588,111.442 9.31,111.3 9.001,111.251 8.691,111.3 8.413,111.442 8.19,111.664 8.049,111.942 8,112.251 8.049,112.561 8.19,112.839 8.413,113.061 8.691,113.203 9,113.251 "
       style="fill:none;stroke:#000000;stroke-width:0.05mm"
       id="polygon1098" />
    <polygon
       transform="translate(328.11584,9.7691663)"
       points="107.227,113.203 107.505,113.061 107.727,112.839 107.869,112.561 107.918,112.251 107.869,111.942 107.727,111.664 107.505,111.442 107.227,111.3 106.918,111.251 106.608,111.3 106.33,111.442 106.108,111.664 105.966,111.942 105.918,112.251 105.966,112.561 106.108,112.839 106.33,113.061 106.608,113.203 106.918,113.251 "
       style="fill:none;stroke:#000000;stroke-width:0.05mm"
       id="polygon1100" />
    <polygon
       transform="translate(328.11584,9.7691663)"
       points="205.144,113.203 205.422,113.061 205.644,112.839 205.786,112.561 205.835,112.251 205.786,111.942 205.644,111.664 205.422,111.442 205.144,111.3 204.835,111.251 204.525,111.3 204.247,111.442 204.025,111.664 203.883,111.942 203.835,112.251 203.883,112.561 204.025,112.839 204.247,113.061 204.525,113.203 204.835,113.251 "
       style="fill:none;stroke:#000000;stroke-width:0.05mm"
       id="polygon1102" />
    <polygon
       transform="translate(328.11584,9.7691663)"
       points="303.061,113.203 303.339,113.061 303.561,112.839 303.703,112.561 303.752,112.251 303.703,111.942 303.561,111.664 303.339,111.442 303.061,111.3 302.752,111.251 302.442,111.3 302.164,111.442 301.942,111.664 301.8,111.942 301.752,112.251 301.8,112.561 301.942,112.839 302.164,113.061 302.442,113.203 302.752,113.251 "
       style="fill:none;stroke:#000000;stroke-width:0.05mm"
       id="polygon1104" />
    <polygon
       transform="translate(328.11584,9.7691663)"
       points="9.31,9.952 9.588,9.81 9.81,9.588 9.952,9.31 10.001,9.001 9.952,8.691 9.81,8.413 9.588,8.19 9.31,8.049 9.001,8.001 8.691,8.049 8.413,8.19 8.19,8.413 8.049,8.691 8,9.001 8.049,9.31 8.19,9.588 8.413,9.81 8.691,9.952 9,10.001 "
       style="fill:none;stroke:#000000;stroke-width:0.05mm"
       id="polygon1106" />
    <polygon
       transform="translate(328.11584,9.7691663)"
       points="303.061,9.952 303.339,9.81 303.561,9.588 303.703,9.31 303.752,9.001 303.703,8.691 303.561,8.413 303.339,8.19 303.061,8.049 302.752,8.001 302.442,8.049 302.164,8.19 301.942,8.413 301.8,8.691 301.752,9.001 301.8,9.31 301.942,9.588 302.164,9.81 302.442,9.952 302.752,10.001 "
       style="fill:none;stroke:#000000;stroke-width:0.05mm"
       id="polygon1108" />
    <polygon
       transform="translate(328.11584,9.7691663)"
       points="205.144,9.952 205.422,9.81 205.644,9.588 205.786,9.31 205.835,9.001 205.786,8.691 205.644,8.413 205.422,8.19 205.144,8.049 204.835,8.001 204.525,8.049 204.247,8.19 204.025,8.413 203.883,8.691 203.835,9.001 203.883,9.31 204.025,9.588 204.247,9.81 204.525,9.952 204.835,10.001 "
       style="fill:none;stroke:#000000;stroke-width:0.05mm"
       id="polygon1110" />
    <polygon
       transform="translate(328.11584,9.7691663)"
       points="107.227,9.952 107.505,9.81 107.727,9.588 107.869,9.31 107.918,9.001 107.869,8.691 107.727,8.413 107.505,8.19 107.227,8.049 106.918,8.001 106.608,8.049 106.33,8.19 106.108,8.413 105.966,8.691 105.918,9.001 105.966,9.31 106.108,9.588 106.33,9.81 106.608,9.952 106.918,10.001 "
       style="fill:none;stroke:#000000;stroke-width:0.05mm"
       id="polygon1112" />
    <polygon
       id="polygon1150-1"
       style="fill:none;stroke:#000000;stroke-width:0.05mm"
       points="306.727,6.688 306.745,6.844 306.752,7.001 306.752,114.251 306.745,114.408 306.727,114.564 306.696,114.718 306.654,114.87 306.599,115.017 306.534,115.159 306.457,115.296 306.37,115.427 306.272,115.55 306.166,115.666 306.05,115.772 305.927,115.87 305.796,115.957 305.659,116.034 305.517,116.099 305.37,116.154 305.218,116.196 305.064,116.227 304.908,116.245 304.752,116.251 7.001,116.251 6.844,116.245 6.688,116.227 6.534,116.196 6.382,116.154 6.235,116.099 6.093,116.034 5.956,115.957 5.825,115.87 5.702,115.772 5.586,115.666 5.48,115.55 5.382,115.427 5.295,115.296 5.218,115.159 5.153,115.017 5.098,114.87 5.056,114.718 5.025,114.564 5.007,114.408 5,114.252 5.001,7.001 5.007,6.844 5.025,6.688 5.056,6.534 5.098,6.382 5.153,6.235 5.218,6.093 5.295,5.956 5.382,5.825 5.48,5.702 5.586,5.586 5.702,5.48 5.825,5.382 5.956,5.295 6.093,5.218 6.235,5.153 6.382,5.098 6.534,5.056 6.688,5.025 6.844,5.007 7.001,5 304.752,5.001 304.908,5.007 305.064,5.025 305.218,5.056 305.37,5.098 305.517,5.153 305.659,5.218 305.796,5.295 305.927,5.382 306.05,5.48 306.166,5.586 306.272,5.702 306.37,5.825 306.457,5.956 306.534,6.093 306.599,6.235 306.654,6.382 306.696,6.534 "
       transform="translate(327.99867,131.22815)" />
    <polygon
       id="polygon1152-4"
       style="fill:none;stroke:#000000;stroke-width:0.05mm"
       points="9.31,111.3 9.001,111.251 8.691,111.3 8.413,111.442 8.19,111.664 8.049,111.942 8,112.251 8.049,112.561 8.19,112.839 8.413,113.061 8.691,113.203 9,113.251 9.31,113.203 9.588,113.061 9.81,112.839 9.952,112.561 10.001,112.251 9.952,111.942 9.81,111.664 9.588,111.442 "
       transform="translate(327.99867,131.22815)" />
    <polygon
       id="polygon1154-2"
       style="fill:none;stroke:#000000;stroke-width:0.05mm"
       points="107.227,111.3 106.918,111.251 106.608,111.3 106.33,111.442 106.108,111.664 105.966,111.942 105.918,112.251 105.966,112.561 106.108,112.839 106.33,113.061 106.608,113.203 106.918,113.251 107.227,113.203 107.505,113.061 107.727,112.839 107.869,112.561 107.918,112.251 107.869,111.942 107.727,111.664 107.505,111.442 "
       transform="translate(327.99867,131.22815)" />
    <polygon
       id="polygon1156-0"
       style="fill:none;stroke:#000000;stroke-width:0.05mm"
       points="205.144,111.3 204.835,111.251 204.525,111.3 204.247,111.442 204.025,111.664 203.883,111.942 203.835,112.251 203.883,112.561 204.025,112.839 204.247,113.061 204.525,113.203 204.835,113.251 205.144,113.203 205.422,113.061 205.644,112.839 205.786,112.561 205.835,112.251 205.786,111.942 205.644,111.664 205.422,111.442 "
       transform="translate(327.99867,131.22815)" />
    <polygon
       id="polygon1158-5"
       style="fill:none;stroke:#000000;stroke-width:0.05mm"
       points="303.061,111.3 302.752,111.251 302.442,111.3 302.164,111.442 301.942,111.664 301.8,111.942 301.752,112.251 301.8,112.561 301.942,112.839 302.164,113.061 302.442,113.203 302.752,113.251 303.061,113.203 303.339,113.061 303.561,112.839 303.703,112.561 303.752,112.251 303.703,111.942 303.561,111.664 303.339,111.442 "
       transform="translate(327.99867,131.22815)" />
    <polygon
       id="polygon1160-7"
       style="fill:none;stroke:#000000;stroke-width:0.05mm"
       points="298.752,108.251 298.752,13.001 13.001,13.001 13.001,108.251 "
       transform="translate(327.99867,131.22815)" />
    <polygon
       id="polygon1162-4"
       style="fill:none;stroke:#000000;stroke-width:0.05mm"
       points="9.31,8.049 9.001,8.001 8.691,8.049 8.413,8.19 8.19,8.413 8.049,8.691 8,9.001 8.049,9.31 8.19,9.588 8.413,9.81 8.691,9.952 9,10.001 9.31,9.952 9.588,9.81 9.81,9.588 9.952,9.31 10.001,9.001 9.952,8.691 9.81,8.413 9.588,8.19 "
       transform="translate(327.99867,131.22815)" />
    <polygon
       id="polygon1164-6"
       style="fill:none;stroke:#000000;stroke-width:0.05mm"
       points="303.061,8.049 302.752,8.001 302.442,8.049 302.164,8.19 301.942,8.413 301.8,8.691 301.752,9.001 301.8,9.31 301.942,9.588 302.164,9.81 302.442,9.952 302.752,10.001 303.061,9.952 303.339,9.81 303.561,9.588 303.703,9.31 303.752,9.001 303.703,8.691 303.561,8.413 303.339,8.19 "
       transform="translate(327.99867,131.22815)" />
    <polygon
       id="polygon1166-5"
       style="fill:none;stroke:#000000;stroke-width:0.05mm"
       points="205.144,8.049 204.835,8.001 204.525,8.049 204.247,8.19 204.025,8.413 203.883,8.691 203.835,9.001 203.883,9.31 204.025,9.588 204.247,9.81 204.525,9.952 204.835,10.001 205.144,9.952 205.422,9.81 205.644,9.588 205.786,9.31 205.835,9.001 205.786,8.691 205.644,8.413 205.422,8.19 "
       transform="translate(327.99867,131.22815)" />
    <polygon
       id="polygon1168-6"
       style="fill:none;stroke:#000000;stroke-width:0.05mm"
       points="107.227,8.049 106.918,8.001 106.608,8.049 106.33,8.19 106.108,8.413 105.966,8.691 105.918,9.001 105.966,9.31 106.108,9.588 106.33,9.81 106.608,9.952 106.918,10.001 107.227,9.952 107.505,9.81 107.727,9.588 107.869,9.31 107.918,9.001 107.869,8.691 107.727,8.413 107.505,8.19 "
       transform="translate(327.99867,131.22815)" />
  </g>
</svg>
